<svg xmlns="http://www.w3.org/2000/svg" width="260" height="180" viewBox="-112.3 0 906.6 628" preserveAspectRatio="xMidYMid meet" role="img" aria-labelledby="trashium-primary-static-title trashium-primary-static-desc" focusable="false">
<title id="trashium-primary-static-title">Trashium primary logo</title>
<desc id="trashium-primary-static-desc">Primary full logo lockup with transparent canvas, preserved vector knockouts, and clean wordmark A leaf accent.</desc>
<style>
:root{--espresso:#2A2218;--sage:#8FA57E;--copper:#C2793D;--cream:#F4EFE3;}
.espresso{fill:#2A2218;}
.sage{fill:#8FA57E;}
.copper{fill:#C2793D;}
.cream{fill:#F4EFE3;}
@supports (fill:var(--espresso)){
  .espresso{fill:var(--espresso);}
  .sage{fill:var(--sage);}
  .copper{fill:var(--copper);}
  .cream{fill:var(--cream);}
}
</style>

<g id="trashium-primary-static-artwork" data-name="Trashium vector artwork">
<path class="espresso" fill="#2A2218" fill-rule="evenodd" d="M 377 328.5 L 360 320.5 L 345 320.5 L 326.5 328 L 326.5 250 L 324.5 245 L 318 238.5 L 311 235.5 L 256 235.5 L 221 210.5 L 206 202.5 L 205.5 200 L 218 195.5 L 235 192.5 L 466 192.5 L 495 199.5 L 495 202.5 L 485 207.5 L 445 235.5 L 392 235.5 L 380.5 243 L 377.5 250 Z M 343 504.5 L 316 504.5 L 263 495.5 L 216 495.5 L 197 491.5 L 178 483.5 L 164 474.5 L 141.5 453 L 134.5 444 L 123.5 424 L 118.5 407 L 116.5 394 L 116.5 369 L 121.5 344 L 131.5 321 L 173.5 256 L 160 248.5 L 158.5 247 L 160 244.5 L 203 220.5 L 205.5 221 L 210.5 276 L 209 277.5 L 192.5 268 L 169.5 311 L 163.5 328 L 161.5 340 L 162.5 364 L 166.5 378 L 173.5 392 L 188 409.5 L 205.5 422 L 202 424.5 L 189 427.5 L 167 427.5 L 154 423.5 L 156 426.5 L 173 433.5 L 193 434.5 L 209 430.5 L 242 414.5 L 251 412.5 L 275 413.5 L 292 419.5 L 318 433.5 L 334 439.5 L 362 440.5 L 366 442.5 L 370.5 449 L 370.5 455 L 364 463.5 L 354 467.5 L 336 469.5 L 306 463.5 L 297.5 464 L 325 472.5 L 345 473.5 L 356 471.5 L 367 466.5 L 372.5 461 L 375 453.5 L 396 444.5 L 433 421.5 L 448 420.5 L 451.5 424 L 452.5 430 L 450.5 434 L 426 456.5 L 391 484.5 L 364 499.5 Z M 324 610.5 L 308 609.5 L 292.5 600 L 296.5 593 L 302 588.5 L 313 596.5 L 323 596.5 L 327.5 593 L 327 587.5 L 305 579.5 L 295.5 570 L 294.5 560 L 297.5 552 L 303 546.5 L 314 542.5 L 322 542.5 L 333 545.5 L 341.5 552 L 334 562.5 L 324 556.5 L 314 556.5 L 309.5 560 L 311 565.5 L 334 573.5 L 342.5 583 L 343.5 592 L 340.5 601 L 335 606.5 Z M 86 609.5 L 73 609.5 L 71.5 608 L 72.5 559 L 71 557.5 L 54 557.5 L 52.5 556 L 53 543.5 L 106.5 544 L 106 557.5 L 87.5 558 L 87.5 608 Z M 185 609.5 L 169 609.5 L 155 587.5 L 145.5 588 L 145 609.5 L 130.5 609 L 131 543.5 L 165 543.5 L 172 545.5 L 180.5 553 L 183.5 559 L 183.5 572 L 180.5 578 L 171.5 586 L 186.5 608 Z M 425 609.5 L 410.5 609 L 410 583.5 L 385 583.5 L 384.5 609 L 369.5 609 L 368.5 553 L 370 543.5 L 384.5 544 L 385 569.5 L 410 569.5 L 410.5 544 L 425.5 544 Z M 468 609.5 L 453.5 609 L 453.5 545 L 455 543.5 L 469.5 544 L 469.5 608 Z M 528 610.5 L 518 610.5 L 507 606.5 L 502.5 603 L 497.5 595 L 495.5 588 L 496 543.5 L 510.5 544 L 511.5 589 L 520 596.5 L 529 595.5 L 534.5 590 L 535.5 544 L 550 543.5 L 551.5 545 L 551.5 583 L 548.5 597 L 540 606.5 Z M 643 609.5 L 628.5 609 L 628 574.5 L 613 602.5 L 603.5 600 L 591 574.5 L 590.5 609 L 577 609.5 L 575.5 608 L 575.5 544 L 591 543.5 L 610 578.5 L 627.5 544 L 643 543.5 Z M 204.5 610 L 227.5 543.5 L 249.0 543.5 L 274.5 610 L 257.0 610 L 252.8 598.5 L 225.3 598.5 L 221.0 610 Z M 231.0 585.5 L 248.0 585.5 L 239.3 560.5 Z M 162.5 574 L 168.5 568 L 168.5 563 L 165 558.5 L 145.5 558 L 146 574.5 Z"/>
<path class="sage" fill="#8FA57E" fill-rule="evenodd" d="M 487 187.5 L 443.5 164 L 459.5 158 L 455.5 150 L 435.5 121 L 426 112.5 L 412 104.5 L 398.5 124 L 383 140.5 L 367 152.5 L 354 159.5 L 340 164.5 L 324 167.5 L 297 167.5 L 283.5 164 L 296.5 138 L 300 134.5 L 314.5 128 L 301.5 130 L 313.5 111 L 324 104.5 L 343.5 102 L 323 102.5 L 322.5 101 L 328 95.5 L 347 84.5 L 359 80.5 L 379 76.5 L 403.5 76 L 384 71.5 L 356 72.5 L 344 75.5 L 329 82.5 L 319 89.5 L 305.5 104 L 283.5 142 L 269 157.5 L 256 166.5 L 238 174.5 L 215 180.5 L 211 180.5 L 210.5 179 L 237.5 134 L 270.5 72 L 279.5 59 L 293 45.5 L 303 38.5 L 324 29.5 L 339 26.5 L 366 26.5 L 395 33.5 L 420 48.5 L 432.5 62 L 443.5 79 L 479.5 151 L 497.5 148 L 489.5 183 Z M 228.0 610.5 C 231.8 598.4 239.2 589.0 250.6 584.6 C 250.8 596.8 242.3 607.5 228.0 610.5 Z"/>
<path class="cream" fill="#F4EFE3" fill-rule="nonzero" d="M 233.4 607.3 C 237.6 600.6 243.2 593.5 248.9 587.7 L 250.0 588.8 C 244.6 594.6 238.8 601.9 234.8 608.1 Z"/>
<path class="copper" fill="#C2793D" fill-rule="evenodd" d="M 494 500.5 L 487.5 496 L 452.5 459 L 493 422.5 L 494.5 423 L 495.5 432 L 495 445.5 L 506 443.5 L 519 436.5 L 531.5 424 L 540.5 409 L 545.5 395 L 548.5 379 L 548.5 362 L 545.5 344 L 537.5 321 L 513.5 268 L 505.5 236 L 503.5 220 L 506 218.5 L 563.5 305 L 581.5 336 L 585.5 346 L 590.5 370 L 590.5 397 L 583.5 426 L 569.5 451 L 556 464.5 L 538 475.5 L 522 480.5 L 496 480.5 Z M 404 358.5 L 310 358.5 L 301.5 357 L 301.5 349 L 311 347.5 L 319 340.5 L 329 340.5 L 331.5 335 L 336 332.5 L 369 332.5 L 373.5 336 L 375 340.5 L 390 341.5 L 395 347.5 L 403 347.5 L 405.5 351 Z M 377 448.5 L 375 448.5 L 371.5 442 L 365 437.5 L 357 435.5 L 336 435.5 L 329 433.5 L 314.5 425 L 306.5 364 L 308 362.5 L 399.5 363 L 390.5 437 L 388 442.5 Z M 347.5 393 L 351.5 386 L 351.5 382 L 349 378.5 L 344 379.5 L 339.5 388 L 345 393.5 Z M 363.5 392 L 367.5 387 L 363.5 381 L 361 378.5 L 353 378.5 L 357.5 389 L 356.5 391 Z M 360.5 420 L 368 419.5 L 375.5 406 L 375.5 403 L 370 394.5 L 363.5 399 L 368.5 409 L 362 410.5 L 359 408.5 L 355.5 414 L 358.5 420 Z M 349.5 419 L 350 410.5 L 339.5 410 L 340.5 404 L 343.5 402 L 341.5 397 L 334 395.5 L 331.5 406 L 336.5 416 L 339 419.5 Z"/>
<path class="cream" fill="#F4EFE3" fill-rule="nonzero" d="M 347.5 393 L 351.5 386 L 351.5 382 L 349 378.5 L 344 379.5 L 339.5 388 L 345 393.5 Z M 363.5 392 L 367.5 387 L 363.5 381 L 361 378.5 L 353 378.5 L 357.5 389 L 356.5 391 Z M 360.5 420 L 368 419.5 L 375.5 406 L 375.5 403 L 370 394.5 L 363.5 399 L 368.5 409 L 362 410.5 L 359 408.5 L 355.5 414 L 358.5 420 Z M 349.5 419 L 350 410.5 L 339.5 410 L 340.5 404 L 343.5 402 L 341.5 397 L 334 395.5 L 331.5 406 L 336.5 416 L 339 419.5 Z"/>
</g>
</svg>
